<?xml version="1.0" encoding="UTF-8" standalone="no"?>
<svg
   xmlns:dc="http://purl.org/dc/elements/1.1/"
   xmlns:cc="http://creativecommons.org/ns#"
   xmlns:rdf="http://www.w3.org/1999/02/22-rdf-syntax-ns#"
   xmlns:svg="http://www.w3.org/2000/svg"
   xmlns="http://www.w3.org/2000/svg"
   xmlns:sodipodi="http://sodipodi.sourceforge.net/DTD/sodipodi-0.dtd"
   xmlns:inkscape="http://www.inkscape.org/namespaces/inkscape"
   inkscape:export-ydpi="576"
   inkscape:export-xdpi="576"
   inkscape:export-filename="D:\Project Real\Maret 1\export\filled line\png\24 - Warning file.png"
   width="64pt"
   height="64pt"
   viewBox="0 0 22.577778 22.577778"
   version="1.1"
   id="svg831"
   inkscape:version="1.0 (4035a4fb49, 2020-05-01)"
   sodipodi:docname="25 - Folders.svg">
  <defs
     id="defs825">
    <pattern
       id="EMFhbasepattern"
       patternUnits="userSpaceOnUse"
       width="6"
       height="6"
       x="0"
       y="0" />
    <pattern
       id="EMFhbasepattern-9"
       patternUnits="userSpaceOnUse"
       width="6"
       height="6"
       x="0"
       y="0" />
    <pattern
       id="EMFhbasepattern-0"
       patternUnits="userSpaceOnUse"
       width="6"
       height="6"
       x="0"
       y="0" />
    <pattern
       id="EMFhbasepattern-7"
       patternUnits="userSpaceOnUse"
       width="6"
       height="6"
       x="0"
       y="0" />
    <pattern
       id="EMFhbasepattern-2"
       patternUnits="userSpaceOnUse"
       width="6"
       height="6"
       x="0"
       y="0" />
    <pattern
       id="EMFhbasepattern-98"
       patternUnits="userSpaceOnUse"
       width="6"
       height="6"
       x="0"
       y="0" />
    <pattern
       id="EMFhbasepattern-6"
       patternUnits="userSpaceOnUse"
       width="6"
       height="6"
       x="0"
       y="0" />
    <pattern
       id="EMFhbasepattern-01"
       patternUnits="userSpaceOnUse"
       width="6"
       height="6"
       x="0"
       y="0" />
    <pattern
       id="EMFhbasepattern-07"
       patternUnits="userSpaceOnUse"
       width="6"
       height="6"
       x="0"
       y="0" />
    <pattern
       id="EMFhbasepattern-8"
       patternUnits="userSpaceOnUse"
       width="6"
       height="6"
       x="0"
       y="0" />
    <pattern
       id="EMFhbasepattern-4"
       patternUnits="userSpaceOnUse"
       width="6"
       height="6"
       x="0"
       y="0" />
    <pattern
       id="EMFhbasepattern-40"
       patternUnits="userSpaceOnUse"
       width="6"
       height="6"
       x="0"
       y="0" />
    <pattern
       id="EMFhbasepattern-08"
       patternUnits="userSpaceOnUse"
       width="6"
       height="6"
       x="0"
       y="0" />
    <pattern
       id="EMFhbasepattern-04"
       patternUnits="userSpaceOnUse"
       width="6"
       height="6"
       x="0"
       y="0" />
    <pattern
       id="EMFhbasepattern-014"
       patternUnits="userSpaceOnUse"
       width="6"
       height="6"
       x="0"
       y="0" />
    <pattern
       id="EMFhbasepattern-27"
       patternUnits="userSpaceOnUse"
       width="6"
       height="6"
       x="0"
       y="0" />
    <pattern
       id="EMFhbasepattern-09"
       patternUnits="userSpaceOnUse"
       width="6"
       height="6"
       x="0"
       y="0" />
    <pattern
       id="EMFhbasepattern-5"
       patternUnits="userSpaceOnUse"
       width="6"
       height="6"
       x="0"
       y="0" />
    <pattern
       id="EMFhbasepattern-018"
       patternUnits="userSpaceOnUse"
       width="6"
       height="6"
       x="0"
       y="0" />
    <inkscape:path-effect
       effect="fillet_chamfer"
       id="path-effect1165"
       is_visible="true"
       lpeversion="1"
       satellites_param="F,0,0,1,0,0,0,1 @ F,0,0,1,0,1.4486321,0,1 @ F,0,0,1,0,0,0,1 @ F,0,0,1,0,0,0,1 @ F,0,0,1,0,1.1651536,0,1 @ F,0,0,1,0,0,0,1 @ F,0,0,1,0,0,0,1 @ F,0,0,1,0,0,0,1 @ F,0,0,1,0,0,0,1 @ F,0,0,1,0,0,0,1 @ F,0,0,1,0,0,0,1 @ F,0,0,1,0,0,0,1 @ F,0,0,1,0,0,0,1 @ F,0,0,1,0,0,0,1"
       unit="px"
       method="auto"
       mode="F"
       radius="0"
       chamfer_steps="1"
       flexible="false"
       use_knot_distance="true"
       apply_no_radius="true"
       apply_with_radius="true"
       only_selected="true"
       hide_knots="false" />
  </defs>
  <sodipodi:namedview
     id="base"
     pagecolor="#ffffff"
     bordercolor="#666666"
     borderopacity="1.0"
     inkscape:pageopacity="0.0"
     inkscape:pageshadow="2"
     inkscape:zoom="6.2578125"
     inkscape:cx="42.666667"
     inkscape:cy="42.688888"
     inkscape:document-units="pt"
     inkscape:current-layer="layer1"
     showgrid="false"
     units="pt"
     inkscape:window-width="1366"
     inkscape:window-height="705"
     inkscape:window-x="-8"
     inkscape:window-y="-8"
     inkscape:window-maximized="1"
     inkscape:pagecheckerboard="true"
     inkscape:showpageshadow="false"
     inkscape:object-paths="true"
     inkscape:snap-intersection-paths="true"
     inkscape:snap-smooth-nodes="true"
     inkscape:snap-midpoints="true"
     showguides="true"
     inkscape:snap-bbox="true"
     inkscape:bbox-nodes="true"
     inkscape:snap-nodes="false"
     inkscape:snap-global="true"
     inkscape:document-rotation="0">
    <inkscape:grid
       type="xygrid"
       id="grid1378" />
    <sodipodi:guide
       position="0.97013831,21.607643"
       orientation="78.000048,0"
       id="guide1380"
       inkscape:locked="false" />
    <sodipodi:guide
       position="0.97013831,0.97013129"
       orientation="0,78.000005"
       id="guide1382"
       inkscape:locked="false" />
    <sodipodi:guide
       position="21.607639,0.97013129"
       orientation="-78.000048,0"
       id="guide1384"
       inkscape:locked="false" />
    <sodipodi:guide
       position="21.607639,21.607643"
       orientation="0,-78.000005"
       id="guide1386"
       inkscape:locked="false" />
  </sodipodi:namedview>
  <metadata
     id="metadata828">
    <rdf:RDF>
      <cc:Work
         rdf:about="">
        <dc:format>image/svg+xml</dc:format>
        <dc:type
           rdf:resource="http://purl.org/dc/dcmitype/StillImage" />
        <dc:title></dc:title>
      </cc:Work>
    </rdf:RDF>
  </metadata>
  <g
     inkscape:label="Icon"
     inkscape:groupmode="layer"
     id="layer1"
     transform="translate(0,-274.42223)">
    <g
       transform="matrix(1.2999666,0,0,1.2999666,-79.022978,-89.372906)"
       style="display:inline;stroke-width:0.769251"
       id="g1542">
      <g
         style="stroke-width:0.769251"
         id="g1531">
        <g
           style="stroke-width:0.769251"
           id="g1515">
          <path
             style="color:#000000;font-style:normal;font-variant:normal;font-weight:normal;font-stretch:normal;font-size:medium;line-height:normal;font-family:sans-serif;font-variant-ligatures:normal;font-variant-position:normal;font-variant-caps:normal;font-variant-numeric:normal;font-variant-alternates:normal;font-variant-east-asian:normal;font-feature-settings:normal;font-variation-settings:normal;text-indent:0;text-align:start;text-decoration:none;text-decoration-line:none;text-decoration-style:solid;text-decoration-color:#000000;letter-spacing:normal;word-spacing:normal;text-transform:none;writing-mode:lr-tb;direction:ltr;text-orientation:mixed;dominant-baseline:auto;baseline-shift:baseline;text-anchor:start;white-space:normal;shape-padding:0;shape-margin:0;inline-size:0;clip-rule:nonzero;display:inline;overflow:visible;visibility:visible;isolation:auto;mix-blend-mode:normal;color-interpolation:sRGB;color-interpolation-filters:linearRGB;solid-color:#000000;solid-opacity:1;vector-effect:none;fill:#ca7d02;fill-opacity:1;fill-rule:nonzero;stroke:none;stroke-width:0.407063;stroke-linecap:round;stroke-linejoin:round;stroke-miterlimit:4;stroke-dasharray:none;stroke-dashoffset:0;stroke-opacity:1;color-rendering:auto;image-rendering:auto;shape-rendering:auto;text-rendering:auto;enable-background:accumulate;stop-color:#000000"
             d="m 63.480469,281.82812 c -1.07112,10e-6 -1.945313,0.87225 -1.945313,1.94336 v 4.63868 a 0.26461046,0.26461046 0 0 0 0.265625,0.26367 l 8.820313,-0.0195 a 0.26461046,0.26461046 0 0 0 0.263672,-0.26368 l 0.02344,-4.05273 a 0.26461046,0.26461046 0 0 0 -0.263672,-0.26758 h -2.501953 c -0.296606,0 -0.560592,-0.17818 -0.671875,-0.45312 L 67.0625,282.61133 c -0.19158,-0.47332 -0.651494,-0.78321 -1.162109,-0.78321 z"
             id="path1622" />
          <path
             id="path1653"
             style="color:#000000;font-style:normal;font-variant:normal;font-weight:normal;font-stretch:normal;font-size:medium;line-height:normal;font-family:sans-serif;font-variant-ligatures:normal;font-variant-position:normal;font-variant-caps:normal;font-variant-numeric:normal;font-variant-alternates:normal;font-variant-east-asian:normal;font-feature-settings:normal;font-variation-settings:normal;text-indent:0;text-align:start;text-decoration:none;text-decoration-line:none;text-decoration-style:solid;text-decoration-color:#000000;letter-spacing:normal;word-spacing:normal;text-transform:none;writing-mode:lr-tb;direction:ltr;text-orientation:mixed;dominant-baseline:auto;baseline-shift:baseline;text-anchor:start;white-space:normal;shape-padding:0;shape-margin:0;inline-size:0;clip-rule:nonzero;display:inline;overflow:visible;visibility:visible;isolation:auto;mix-blend-mode:normal;color-interpolation:sRGB;color-interpolation-filters:linearRGB;solid-color:#000000;solid-opacity:1;vector-effect:none;fill:#b05e00;fill-opacity:1;fill-rule:nonzero;stroke:none;stroke-width:1.53851;stroke-linecap:round;stroke-linejoin:round;stroke-miterlimit:4;stroke-dasharray:none;stroke-dashoffset:0;stroke-opacity:1;color-rendering:auto;image-rendering:auto;shape-rendering:auto;text-rendering:auto;enable-background:accumulate;stop-color:#000000"
             d="m 267.99414,17.298828 c -0.12173,0.06584 -0.22257,0.0918 -0.40039,0.0918 h -9.59766 a 1.7399893,1.7399893 0 0 0 -0.006,0 c -1.43486,0.0038 -2.7379,1.319046 -2.73242,2.753906 v 12.337891 l 11.65625,-0.02539 a 1.0001025,1.0001025 0 0 0 0.9961,-0.996093 z"
             transform="matrix(0.26458334,0,0,0.26458334,0,280.06666)" />
          <path
             style="color:#000000;font-style:normal;font-variant:normal;font-weight:normal;font-stretch:normal;font-size:medium;line-height:normal;font-family:sans-serif;font-variant-ligatures:normal;font-variant-position:normal;font-variant-caps:normal;font-variant-numeric:normal;font-variant-alternates:normal;font-variant-east-asian:normal;font-feature-settings:normal;font-variation-settings:normal;text-indent:0;text-align:start;text-decoration:none;text-decoration-line:none;text-decoration-style:solid;text-decoration-color:#000000;letter-spacing:normal;word-spacing:normal;text-transform:none;writing-mode:lr-tb;direction:ltr;text-orientation:mixed;dominant-baseline:auto;baseline-shift:baseline;text-anchor:start;white-space:normal;shape-padding:0;shape-margin:0;inline-size:0;clip-rule:nonzero;display:inline;overflow:visible;visibility:visible;isolation:auto;mix-blend-mode:normal;color-interpolation:sRGB;color-interpolation-filters:linearRGB;solid-color:#000000;solid-opacity:1;vector-effect:none;fill:#e59f2e;fill-opacity:1;fill-rule:nonzero;stroke:none;stroke-width:0.407063;stroke-linecap:round;stroke-linejoin:round;stroke-miterlimit:4;stroke-dasharray:none;stroke-dashoffset:0;stroke-opacity:1;color-rendering:auto;image-rendering:auto;shape-rendering:auto;text-rendering:auto;enable-background:accumulate;stop-color:#000000"
             d="m 73.044922,283.41406 c -0.510616,0 -0.970712,0.33655 -1.34961,0.99024 -0.331037,0.5711 -0.597925,0.72461 -0.894531,0.72461 h -2.539062 a 0.26461046,0.26461046 0 0 0 -0.263672,0.26562 v 9.58008 a 0.26461046,0.26461046 0 0 0 0.263672,0.26562 h 7.214843 c 1.064975,0 1.933594,-0.87057 1.933594,-1.93554 -1.8e-5,-2.62484 0,-5.32047 0,-7.94531 0,-1.07112 -0.874193,-1.94532 -1.945312,-1.94532 z"
             id="path1607" />
          <path
             id="path1642"
             style="color:#000000;font-style:normal;font-variant:normal;font-weight:normal;font-stretch:normal;font-size:medium;line-height:normal;font-family:sans-serif;font-variant-ligatures:normal;font-variant-position:normal;font-variant-caps:normal;font-variant-numeric:normal;font-variant-alternates:normal;font-variant-east-asian:normal;font-feature-settings:normal;font-variation-settings:normal;text-indent:0;text-align:start;text-decoration:none;text-decoration-line:none;text-decoration-style:solid;text-decoration-color:#000000;letter-spacing:normal;word-spacing:normal;text-transform:none;writing-mode:lr-tb;direction:ltr;text-orientation:mixed;dominant-baseline:auto;baseline-shift:baseline;text-anchor:start;white-space:normal;shape-padding:0;shape-margin:0;inline-size:0;clip-rule:nonzero;display:inline;overflow:visible;visibility:visible;isolation:auto;mix-blend-mode:normal;color-interpolation:sRGB;color-interpolation-filters:linearRGB;solid-color:#000000;solid-opacity:1;vector-effect:none;fill:#b05e00;fill-opacity:1;fill-rule:nonzero;stroke:none;stroke-width:1.53851;stroke-linecap:round;stroke-linejoin:round;stroke-miterlimit:4;stroke-dasharray:none;stroke-dashoffset:0;stroke-opacity:1;color-rendering:auto;image-rendering:auto;shape-rendering:auto;text-rendering:auto;enable-background:accumulate;stop-color:#000000"
             d="m 239.92578,13.308594 c -3.03327,0 -5.72583,1.534316 -7.35156,3.861328 v 14.365234 a 1.0001025,1.0001025 0 0 0 1.0039,0.996094 l 33.33594,-0.07422 a 1.0001025,1.0001025 0 0 0 0.9961,-0.996093 l 0.0586,-9.94336 h -10.42187 c -0.47399,0 -0.86273,-0.260668 -1.04102,-0.701172 a 1.6157144,1.6157144 0 0 0 -0.0293,-0.05859 l -0.0156,-0.03125 a 1.6157144,1.6157144 0 0 0 -0.043,-0.0957 l -1.45508,-3.351562 c -0.96945,-2.395125 -3.30717,-3.97059 -5.89062,-3.970703 z"
             transform="matrix(0.26458334,0,0,0.26458334,0,280.06666)" />
          <path
             id="path1645"
             style="color:#000000;font-style:normal;font-variant:normal;font-weight:normal;font-stretch:normal;font-size:medium;line-height:normal;font-family:sans-serif;font-variant-ligatures:normal;font-variant-position:normal;font-variant-caps:normal;font-variant-numeric:normal;font-variant-alternates:normal;font-variant-east-asian:normal;font-feature-settings:normal;font-variation-settings:normal;text-indent:0;text-align:start;text-decoration:none;text-decoration-line:none;text-decoration-style:solid;text-decoration-color:#000000;letter-spacing:normal;word-spacing:normal;text-transform:none;writing-mode:lr-tb;direction:ltr;text-orientation:mixed;dominant-baseline:auto;baseline-shift:baseline;text-anchor:start;white-space:normal;shape-padding:0;shape-margin:0;inline-size:0;clip-rule:nonzero;display:inline;overflow:visible;visibility:visible;isolation:auto;mix-blend-mode:normal;color-interpolation:sRGB;color-interpolation-filters:linearRGB;solid-color:#000000;solid-opacity:1;vector-effect:none;fill:#ca7d02;fill-opacity:1;fill-rule:nonzero;stroke:none;stroke-width:1.53851;stroke-linecap:round;stroke-linejoin:round;stroke-miterlimit:4;stroke-dasharray:none;stroke-dashoffset:0;stroke-opacity:1;color-rendering:auto;image-rendering:auto;shape-rendering:auto;text-rendering:auto;enable-background:accumulate;stop-color:#000000"
             d="m 257,21.371094 v 34.974609 a 1.0001025,1.0001025 0 0 0 0.99609,1.003906 h 27.26953 c 0.0323,0 0.0635,-0.0054 0.0957,-0.0059 2.30846,-1.620539 3.83203,-4.297757 3.83203,-7.310547 V 41.167969 29.578125 c 0,-4.426583 -3.63396,-8.060547 -8.06055,-8.060547 h -23.58593 c -0.20305,0 -0.385,-0.05715 -0.54688,-0.146484 z"
             transform="matrix(0.26458334,0,0,0.26458334,0,280.06666)" />
          <path
             style="color:#000000;font-style:normal;font-variant:normal;font-weight:normal;font-stretch:normal;font-size:medium;line-height:normal;font-family:sans-serif;font-variant-ligatures:normal;font-variant-position:normal;font-variant-caps:normal;font-variant-numeric:normal;font-variant-alternates:normal;font-variant-east-asian:normal;font-feature-settings:normal;font-variation-settings:normal;text-indent:0;text-align:start;text-decoration:none;text-decoration-line:none;text-decoration-style:solid;text-decoration-color:#000000;letter-spacing:normal;word-spacing:normal;text-transform:none;writing-mode:lr-tb;direction:ltr;text-orientation:mixed;dominant-baseline:auto;baseline-shift:baseline;text-anchor:start;white-space:normal;shape-padding:0;shape-margin:0;inline-size:0;clip-rule:nonzero;display:inline;overflow:visible;visibility:visible;isolation:auto;mix-blend-mode:normal;color-interpolation:sRGB;color-interpolation-filters:linearRGB;solid-color:#000000;solid-opacity:1;vector-effect:none;fill:#fcba4c;fill-opacity:1;fill-rule:nonzero;stroke:none;stroke-width:0.407063;stroke-linecap:round;stroke-linejoin:round;stroke-miterlimit:4;stroke-dasharray:none;stroke-dashoffset:0;stroke-opacity:1;color-rendering:auto;image-rendering:auto;shape-rendering:auto;text-rendering:auto;enable-background:accumulate;stop-color:#000000"
             d="m 63.480469,284.01562 c -1.07112,0 -1.945313,0.8742 -1.945313,1.94532 v 7.34375 c 0,1.06496 0.868625,1.93554 1.933594,1.93554 h 10.683594 c 1.064969,0 1.935547,-0.87058 1.935547,-1.93554 v -2.34571 -3.0664 c 0,-0.93836 -0.766719,-1.70508 -1.705079,-1.70508 h -6.240234 c -0.296606,0 -0.560592,-0.17819 -0.671875,-0.45312 a 0.26461046,0.26461046 0 0 0 -0.0039,-0.006 L 67.0625,284.79883 c -0.19158,-0.47332 -0.651494,-0.7832 -1.162109,-0.78321 z"
             id="path1593" />
        </g>
        <path
           id="path1558-6"
           style="color:#000000;font-style:normal;font-variant:normal;font-weight:normal;font-stretch:normal;font-size:medium;line-height:normal;font-family:sans-serif;font-variant-ligatures:normal;font-variant-position:normal;font-variant-caps:normal;font-variant-numeric:normal;font-variant-alternates:normal;font-variant-east-asian:normal;font-feature-settings:normal;font-variation-settings:normal;text-indent:0;text-align:start;text-decoration:none;text-decoration-line:none;text-decoration-style:solid;text-decoration-color:#000000;letter-spacing:normal;word-spacing:normal;text-transform:none;writing-mode:lr-tb;direction:ltr;text-orientation:mixed;dominant-baseline:auto;baseline-shift:baseline;text-anchor:start;white-space:normal;shape-padding:0;shape-margin:0;inline-size:0;clip-rule:nonzero;display:inline;overflow:visible;visibility:visible;isolation:auto;mix-blend-mode:normal;color-interpolation:sRGB;color-interpolation-filters:linearRGB;solid-color:#000000;solid-opacity:1;vector-effect:none;fill:#000000;fill-opacity:1;fill-rule:nonzero;stroke:none;stroke-width:0.407064;stroke-linecap:round;stroke-linejoin:round;stroke-miterlimit:4;stroke-dasharray:none;stroke-dashoffset:0;stroke-opacity:1;color-rendering:auto;image-rendering:auto;shape-rendering:auto;text-rendering:auto;enable-background:accumulate;stop-color:#000000"
           d="m 63.480363,281.82676 c -1.071118,0 -1.945616,0.87399 -1.945616,1.9451 v 2.04897 h 0.0072 c -0.0033,0.0459 -0.0072,0.0918 -0.0072,0.13849 v 7.34581 c 0,1.06496 0.868762,1.93373 1.933731,1.93373 h 10.683587 1.324464 c 1.064975,0 1.933218,-0.86876 1.933218,-1.93373 -1.8e-5,-2.62484 0,-5.32041 0,-7.94525 0,-1.07112 -0.873982,-1.9451 -1.945103,-1.9451 h -2.420006 c -0.510614,0 -0.970375,0.33643 -1.349272,0.99012 -0.331036,0.5711 -0.597913,0.7245 -0.894519,0.7245 h -2.539381 c -0.145412,5e-4 -0.263046,0.11814 -0.263549,0.26355 -5.29e-4,0.14617 0.117377,0.26512 0.263549,0.26562 h 2.539381 c 0.510612,0 0.972442,-0.33645 1.351338,-0.99012 0.331039,-0.57112 0.59585,-0.72451 0.892453,-0.72451 h 2.420006 c 0.785135,0 1.415936,0.63081 1.415936,1.41594 0,2.62483 -1.8e-5,5.32041 0,7.94525 0,0.77864 -0.624514,1.40401 -1.403016,1.40456 0.374555,-0.35296 0.610298,-0.85177 0.610298,-1.40456 0,-1.80403 0,-3.60805 0,-5.41207 0,-0.93836 -0.766963,-1.70533 -1.705321,-1.70533 h -6.239928 c -0.296609,0 -0.561028,-0.17775 -0.672312,-0.45268 -0.0011,-0.003 -0.0024,-0.006 -0.0036,-0.008 l -0.404116,-0.92786 c -0.19158,-0.47332 -0.651587,-0.78497 -1.162201,-0.78497 h -2.420009 c -0.557612,0 -1.060614,0.23822 -1.415933,0.6165 v -0.85886 c 0,-0.78512 0.630801,-1.41593 1.415933,-1.41593 h 2.420009 c 0.296601,0 0.560509,0.18033 0.671793,0.45527 l 0.408244,1.00355 c 0.19158,0.47333 0.65159,0.78548 1.162204,0.78548 h 2.501654 c 0.145415,-5e-4 0.263048,-0.11865 0.263551,-0.26406 5.29e-4,-0.14618 -0.117372,-0.26512 -0.263551,-0.26562 h -2.501654 c -0.296609,0 -0.561028,-0.17774 -0.672312,-0.45268 l -0.40772,-1.00615 c -0.19158,-0.47331 -0.651587,-0.78496 -1.162201,-0.78496 z m 3.500046,4.10569 c 0.19158,0.47332 0.651592,0.78497 1.162204,0.78497 h 6.239928 c 0.652378,0 1.175639,0.52326 1.175639,1.17564 0,1.48053 0,2.96106 0,4.44159 H 62.06443 v -6.37481 c 0,-0.78512 0.630801,-1.41645 1.415933,-1.41645 h 2.420009 c 0.296601,0 0.560509,0.18033 0.673603,0.45811 z m -4.915979,6.93136 h 13.49375 v 0.44132 c 0,0.77898 -0.627134,1.40456 -1.406115,1.40456 H 63.468478 c -0.778981,0 -1.404048,-0.62558 -1.404048,-1.40456 z"
           sodipodi:nodetypes="ssccssscscssssscccsssssscccsscccsscsssccscccsccsscsscccsssccccssssc" />
      </g>
    </g>
  </g>
</svg>
