<svg>
    <symbol id="facebook" width="62px" height="62px" version="1.1" enable-background="new 0 0 100 100" viewBox="0 0 100 100" xml:space="preserve" xmlns="http://www.w3.org/2000/svg" xmlns:xlink="http://www.w3.org/1999/xlink">
        <path d="M50,3.84C24.506,3.84,3.84,24.506,3.84,50S24.506,96.16,50,96.16S96.16,75.494,96.16,50S75.494,3.84,50,3.84  z M65.137,52.572c-1.854-0.031-3.549,0.023-5.704-0.07c-0.35-0.016-5.963,0.068-5.946,0.17c0.408,2.496-0.178,5.148-0.143,7.672  c0.021,1.471,0.453,14.779,0.254,19.688l-11.123,0.102c-0.046-4.18,0.158-8.479-0.023-13.992  c-0.037-1.133-0.074-13.061-0.206-13.689c0,0-4.916,0.035-7.214,0.049c0,0-0.031-4.402-0.031-5.891c0-1.463,0-2.924,0-4.387  c0,0,5.738-0.318,7.385-0.461c0,0,0.168-5.584,0.396-7.393c0.263-2.066,0.289-4.154,1.502-5.982  c2.223-3.346,4.417-6.295,8.504-7.184c1.546-0.338,11.741-2.342,12.119-0.693l-0.232,9.928c-2.772,0-6.094-0.281-8.923,1.82  c-1.575,1.172-2.01,2.148-2.169,4.076c-0.095,1.121-0.117,5.658-0.117,5.658c1.494,0.213,3.705,0.119,5.311,0  c1.814-0.135,6.471,0.346,6.471,0.346C65.246,45.342,65.126,52.275,65.137,52.572z" fill="#3A5897"/>
    </symbol>

    <symbol id="twitter" width="62px" height="62px" style="enable-background:new 0 0 112.197 112.197;" version="1.1" viewBox="0 0 112.197 112.197" xml:space="preserve" xmlns="http://www.w3.org/2000/svg" xmlns:xlink="http://www.w3.org/1999/xlink">
        <g><circle cx="56.099" cy="56.098" r="56.098" style="fill:#55ACEE;"/><g><path d="M90.461,40.316c-2.404,1.066-4.99,1.787-7.702,2.109c2.769-1.659,4.894-4.284,5.897-7.417    c-2.591,1.537-5.462,2.652-8.515,3.253c-2.446-2.605-5.931-4.233-9.79-4.233c-7.404,0-13.409,6.005-13.409,13.409    c0,1.051,0.119,2.074,0.349,3.056c-11.144-0.559-21.025-5.897-27.639-14.012c-1.154,1.98-1.816,4.285-1.816,6.742    c0,4.651,2.369,8.757,5.965,11.161c-2.197-0.069-4.266-0.672-6.073-1.679c-0.001,0.057-0.001,0.114-0.001,0.17    c0,6.497,4.624,11.916,10.757,13.147c-1.124,0.308-2.311,0.471-3.532,0.471c-0.866,0-1.705-0.083-2.523-0.239    c1.706,5.326,6.657,9.203,12.526,9.312c-4.59,3.597-10.371,5.74-16.655,5.74c-1.08,0-2.15-0.063-3.197-0.188    c5.931,3.806,12.981,6.025,20.553,6.025c24.664,0,38.152-20.432,38.152-38.153c0-0.581-0.013-1.16-0.039-1.734    C86.391,45.366,88.664,43.005,90.461,40.316L90.461,40.316z" style="fill:#F1F2F2;"/></g></g><g/><g/><g/><g/><g/><g/><g/><g/><g/><g/><g/><g/><g/><g/><g/>
    </symbol>  

    <symbol id="instagram" width="62px" height="62px" enable-background="new 0 0 512 512" version="1.1" viewBox="0 0 512 512" xml:space="preserve" xmlns="http://www.w3.org/2000/svg" xmlns:xlink="http://www.w3.org/1999/xlink">
        <g id="Layer_1_1_"><circle cx="256" cy="256" fill="#BC2A8D" r="238.2"/></g><g id="Layer_2_1_"><g><path d="M385.1,258c0,18.2,0,36.5,0,54.7c0,30.9-15,52.3-41.9,66.2c-11,5.7-22.9,8.2-35.3,8.2    c-35.1,0-70.3,0.6-105.4-0.2c-28.2-0.6-50.9-13-66.1-37.3c-6.3-10.2-9.4-21.4-9.5-33.3c0-38.5-0.2-77.1,0-115.6    c0.2-26.4,13.1-45.9,35-59.7c13-8.1,27.4-11.8,42.7-11.9c34.2,0,68.3-0.2,102.6,0c26.4,0.2,48.3,10.5,64.5,31.7    c8.9,11.7,13.3,25.3,13.3,40.1C385.1,219.8,385.1,238.9,385.1,258z M365.9,258.2c0-19.1,0-38.4,0-57.5c0-10.4-3.1-19.9-9.2-28.1    c-11.9-16.1-28.4-24-48.1-24.2c-34.7-0.4-69.4-0.1-104.1-0.1c-10.8,0-21,2.5-30.3,7.9c-18,10.4-28,25.6-27.9,46.8    c0.1,37.3,0,74.8,0,112.2c0,10.5,3.1,20.1,9.3,28.4c11.9,16.1,28.4,23.9,48.1,24.1c34.9,0.4,69.8,0.1,104.6,0.1    c7.9,0,15.6-1.7,23-4.7c19.6-7.9,35.3-26.2,34.7-50.6C365.5,294.4,365.9,276.3,365.9,258.2z" fill="#FFFFFF"/><path d="M256,313.1c-33.7-0.1-60.6-27-60.5-60.5c0.1-32.7,27.5-59.3,60.9-59.2c33.4,0.1,60.5,27.1,60.4,60.2    C316.8,286.5,289.6,313.2,256,313.1z M256.5,212.6c-22.9,0-41.4,18.1-41.6,40.5c0,22.3,18.5,40.6,41.1,40.7    c22.9,0,41.6-18.1,41.7-40.4C297.7,231,279.2,212.6,256.5,212.6z" fill="#FFFFFF"/><path d="M336.7,188.5c0,7.3-5.8,13.3-12.9,13.2c-7,0-12.7-6.1-12.6-13.4c0-7.2,5.8-13.1,12.8-13.1    C331,175.2,336.7,181.2,336.7,188.5z" fill="#FFFFFF"/></g></g>
    </symbol>    

    <symbol id="arrowdown" fill="white" width="62px" height="62px" xmlns="http://www.w3.org/2000/svg" version="1.1" xmlns:xlink="http://www.w3.org/1999/xlink" x="0px" y="0px"
        viewBox="0 0 612 612" style="enable-background:new 0 0 612 612;" xml:space="preserve">
        <g>
            <g>
                <path d="M587.572,186.881c-32.266-75.225-87.096-129.934-162.949-162.285C386.711,8.427,347.328,0.168,305.832,0.168
                    c-41.488,0-80.914,8.181-118.784,24.428C111.824,56.861,56.415,111.535,24.092,186.881C7.895,224.629,0,264.176,0,305.664
                    c0,41.496,7.895,81.371,24.092,119.127c32.323,75.346,87.731,130.348,162.956,162.621c37.877,16.247,77.295,24.42,118.784,24.42
                    c41.489,0,80.879-8.259,118.784-24.42c75.853-32.352,130.683-87.403,162.956-162.621C603.819,386.914,612,347.16,612,305.664
                    C612,264.176,603.826,224.757,587.572,186.881z M553.443,410.399c-14.198,33.065-33.044,61.99-57.222,85.997
                    c-24.007,23.843-52.867,42.831-85.997,57.215c-33.129,14.391-67.93,21.415-104.399,21.415c-48.52,0-93.356-12.042-134.517-36.135
                    c-41.16-24.092-74.018-56.844-98.039-98.039c-24.157-41.453-36.128-86.668-36.128-135.188c0-48.52,12.043-93.356,36.135-134.509
                    c24.092-41.16,56.886-73.947,98.047-98.039c41.16-24.092,85.997-36.142,134.517-36.142c36.47,0,71.27,7.024,104.4,21.415
                    c33.129,14.392,61.818,33.544,85.997,57.55c24.006,23.842,43.023,52.596,57.222,85.662
                    c14.248,33.187,21.415,67.594,21.415,104.063C574.858,342.142,567.691,377.213,553.443,410.399z"/>
                <path d="M457.074,231.717L307.838,380.282L154.926,231.046c-7.296-7.124-19.074-7.024-26.77,0.671
                    c-6.696,6.696-6.639,18.981,0.671,26.098L295.46,420.101c6.782,6.604,18.902,7.231,26.099,0l161.614-162.285
                    c3.676-3.683,5.354-8.031,5.354-13.049c0-5.689-1.671-10.037-5.354-13.049C476.483,224.022,464.791,224.037,457.074,231.717z"/>
            </g>
        </g><g></g><g></g><g></g><g></g><g></g><g></g><g></g><g></g><g></g><g></g><g></g><g></g><g></g><g></g><g></g>
    </symbol>  



    <symbol id="map" version="1.1" width="14px" height="16px" xmlns="http://www.w3.org/2000/svg" xmlns:xlink="http://www.w3.org/1999/xlink" x="0px" y="0px"
        viewBox="0 0 32.041 32" style="enable-background:new 0 0 32.041 32;" xml:space="preserve">
        <g id="Layer_33">
            <path style="fill:#95CC29;" d="M30,22v-4h-3.961l-2-2l-8.02,8L18,26c0,2.106,0,3.921,0,6c1,0,3,0,4,0c0-2,0-3.666,0-6h4v6
                c1,0,3,0,4,0c0-2,0-3.666,0-6l2-2L30,22z"/>
            <path style="fill:#666666;" d="M12.022,0h-0.002h-0.001C5.688,0.018,0.932,4.756,0.164,10.237C0.062,10.96,0,11.625,0,12.278
                c-0.007,1.999,0.617,3.747,2.081,6.33C3.55,21.212,5.904,24.79,9.59,30.727l0.023,0.037L9.64,30.8c0.588,0.786,1.488,1.2,2.371,1.2
                h0.01h0.01c0.883,0,1.783-0.414,2.37-1.2l0.026-0.035l0.023-0.037c0.806-1.298,1.548-2.484,2.232-3.572l-1.693-1.064
                c-0.673,1.071-1.405,2.24-2.198,3.516c-0.2,0.259-0.475,0.382-0.771,0.39c-0.296-0.008-0.571-0.131-0.771-0.39
                c-3.671-5.91-6.025-9.497-7.425-11.982C2.413,15.11,2.007,13.842,2,12.278c0-0.524,0.05-1.096,0.144-1.763
                C2.783,5.981,6.739,2.004,12.02,2c5.281,0.004,9.237,3.981,9.875,8.515v0c0.094,0.667,0.144,1.239,0.144,1.763
                c-0.001,0.706-0.087,1.33-0.299,2.043l1.916,0.574c0.267-0.886,0.384-1.739,0.383-2.616c0-0.653-0.062-1.318-0.164-2.041v0
                C23.107,4.756,18.351,0.018,12.022,0z"/>
            <path style="fill:#666666;" d="M8.039,12c0.002,2.208,1.792,3.998,4,4c2.208-0.002,3.998-1.792,4-4c-0.002-2.208-1.792-3.998-4-4
                C9.831,8.002,8.041,9.792,8.039,12z M14.039,12c-0.002,1.1-0.9,1.998-2,2c-1.1-0.002-1.998-0.9-2-2c0.002-1.1,0.9-1.998,2-2
                C13.14,10.002,14.038,10.9,14.039,12z"/>
            <rect x="0.041" style="fill:none;" width="32" height="32"/>
        </g>
        <g id="Layer_1">
        </g>
    </symbol>  

    <symbol id="phone" width="14px" height="16px" enable-background="new 0 0 64 64" version="1.1" viewBox="0 0 64 64" xml:space="preserve" xmlns="http://www.w3.org/2000/svg" xmlns:xlink="http://www.w3.org/1999/xlink">
        <g id="_x31_-Call"><g><path d="M51.2584381,43.5675163l-6.4785156-4.5268555c-0.847168-0.5898438-1.8374023-0.9018555-2.8642578-0.9018555    c-1.6333008,0-3.1660156,0.8007813-4.0996094,2.140625l-1.5039063,2.1552734    c-2.5205078-1.6904297-5.3334942-4.0507813-8.01367-6.730957c-2.6806641-2.6806641-5.0410156-5.493166-6.7304688-8.0136738    l2.1538086-1.503418c2.2612305-1.574707,2.8173828-4.6987305,1.2387695-6.965332l-4.5258789-6.4775381    c-0.9467773-1.3540039-2.4741211-2.1621094-4.0854492-2.1621094c-0.5581055,0-1.105957,0.0981445-1.6279297,0.2910156    c-0.5917969,0.2192383-1.1430664,0.4873047-1.684082,0.8266602l-0.8945313,0.6298828    c-0.2236328,0.1743164-0.4316406,0.3642578-0.6308594,0.5634766c-1.0913086,1.0913086-1.8662109,2.472168-2.3027344,4.1049795    c-1.8647466,6.9907227,2.7548828,17.5600605,11.4951172,26.3002949    c7.3398438,7.3398438,16.1577129,11.8999023,23.0122051,11.9003906c0.0004883,0,0.0009766,0,0.0014648,0    c1.1728516,0,2.2783203-0.1367188,3.2871094-0.4052734c1.6328125-0.4365234,3.0136719-1.2114258,4.1035156-2.3017578    c0.199707-0.1987305,0.3901367-0.4072266,0.5932617-0.6704102l0.6308594-0.9003906    c0.309082-0.4951172,0.5771484-1.046875,0.796875-1.6396484C53.8922272,47.2203484,53.1231842,44.870739,51.2584381,43.5675163z"/><path d="M47.9254303,16.07728c-4.3100586-4.3105459-10.0317383-6.8935537-16.1108379-7.2734365    c-0.5478516-0.0366211-1.0258789,0.3847656-1.0605469,0.9355469c-0.034668,0.5512695,0.3842773,1.0258789,0.9355469,1.0605469    c5.5922832,0.3496094,10.8559551,2.7260742,14.8217754,6.6914053c3.9648438,3.9648438,6.3408203,9.2280273,6.690918,14.8203144    c0.0332031,0.5297852,0.4731445,0.9375,0.9970703,0.9375c0.0209961,0,0.0419922-0.0004883,0.0634766-0.0019531    c0.5512695-0.034668,0.9702148-0.5092773,0.9355469-1.0605469C54.8180084,26.1080418,52.2350006,20.3868504,47.9254303,16.07728z"/><path d="M31.3145924,16.7882175c4.1332989,0.2587891,8.0234356,2.0151367,10.9540997,4.9458008    c2.9301758,2.9306641,4.6865234,6.8203125,4.9453125,10.9526386c0.0332031,0.5297852,0.4731445,0.9375,0.9970703,0.9375    c0.0209961,0,0.0419922-0.0004883,0.0634766-0.0019531c0.5512695-0.034668,0.9702148-0.5092773,0.9355469-1.0605469    c-0.2890625-4.6191425-2.2519531-8.9667988-5.5273438-12.2417011c-3.2753906-3.2753906-7.6235352-5.2387686-12.2431622-5.5278311    c-0.5532227-0.0307617-1.0258789,0.3847656-1.0605469,0.9355469    C30.3443775,16.2789402,30.7633228,16.7535496,31.3145924,16.7882175z"/><path d="M30.9395924,22.7764988c2.6733379,0.1674805,5.1899395,1.3037109,7.0864239,3.199707    c1.8959961,1.8964844,3.0322266,4.4125977,3.2001953,7.0854511c0.0332031,0.5302734,0.4736328,0.9375,0.9970703,0.9375    c0.0209961,0,0.0424805-0.0004883,0.0634766-0.0019531c0.5512695-0.034668,0.9702148-0.5097656,0.9355469-1.0605469    c-0.1982422-3.1596699-1.5415039-6.1333027-3.7822266-8.3745136c-2.2412109-2.2407227-5.2158203-3.5839844-8.3754864-3.7817383    c-0.5585938-0.0375977-1.0258789,0.3847656-1.0605469,0.9355469    C29.9693775,22.2672215,30.3883228,22.7418308,30.9395924,22.7764988z"/></g></g><g id="_x32_-24_Hours_Call"/><g id="_x33_-Sending_Call"/><g id="_x34_-Incoming_Call"/><g id="_x35_-Talk_On_Phone"/><g id="_x36_-Block_Call"/><g id="_x37_-Hold_Call"/><g id="_x38_-Mute_Call"/><g id="_x39_-Phone_Book"/><g id="_x31_0-Add_Contact"/><g id="_x31_1-Delete_Contact"/><g id="_x31_2-Mail"/><g id="_x31_3-Message_Read"/><g id="_x31_4-Email"/><g id="_x31_5-Send_Mail"/><g id="_x31_6-Important_Mail"/><g id="_x31_7-Mail_Chain"/><g id="_x31_8-Messaging"/><g id="_x31_9-Sending"/><g id="_x32_0-Chat"/><g id="_x32_1-Mail_Attachment"/><g id="_x32_2-Mobile_Link"/><g id="_x32_3-Smartphone"/><g id="_x32_4-Social_Media"/><g id="_x32_5-Support"/><g id="_x32_6-Links"/><g id="_x32_7-Phone"/><g id="_x32_8-Phone-2"/><g id="_x32_9-Map"/><g id="_x33_0-Location"/><g id="_x33_1-Write"/><g id="_x33_2-World"/><g id="_x33_3-Home"/><g id="_x33_4-Calendar"/><g id="_x33_5-Website"/><g id="_x33_6-Info"/><g id="_x33_7-Bull_Horn"/><g id="_x33_8-Profile"/><g id="_x33_9-Quote__x26__Answer"/><g id="_x34_0-Notification"/><g id="_x34_1-Share"/><g id="_x34_2-Time"/>
    </symbol>  

    <symbol id="email" width="14px" height="16px" viewBox="0 0 32 32" xmlns="http://www.w3.org/2000/svg">
        <title/><g id="mail"><path d="M29,6H3L2.92,6a.78.78,0,0,0-.21,0l-.17.07a.65.65,0,0,0-.15.1.67.67,0,0,0-.15.14l-.06.06a.36.36,0,0,0,0,.09,1.08,1.08,0,0,0-.08.19A1.29,1.29,0,0,0,2,6.9S2,7,2,7V25a1,1,0,0,0,1,1H29a1,1,0,0,0,1-1V7A1,1,0,0,0,29,6ZM16,14.81,6.2,8H27.09ZM4,24V8.91l11.43,7.91,0,0a1.51,1.51,0,0,0,.18.09l.08,0A1.09,1.09,0,0,0,16,17h0a1,1,0,0,0,.41-.1l.07,0,0,0L28,9.79V24Z"/></g>
    </symbol>      
</svg>